<?xml version="1.0" encoding="utf-8"?>
<!-- Generator: Adobe Illustrator 25.0.0, SVG Export Plug-In . SVG Version: 6.00 Build 0)  -->
<svg version="1.1" xmlns="http://www.w3.org/2000/svg" xmlns:xlink="http://www.w3.org/1999/xlink" x="0px" y="0px"
	 viewBox="0 0 1920 1080" style="enable-background:new 0 0 1920 1080;" xml:space="preserve">
<style type="text/css">
	.st0{fill:#E7E7E7;}
	.st1{fill:none;stroke:#000000;stroke-miterlimit:10;}
	.st2{fill:#FFFFFF;}
	.st3{fill:#253C7A;}
	.st4{fill:none;stroke:#253C7A;stroke-width:20;stroke-miterlimit:10;}
</style>
<g id="Layer_2">
	<path class="st0" d="M1067.5,337.5c14.16-9.12,109.99,63.73,120,168c0.9,9.36,4.87,58.2-22,112c-22.63,45.31-54.89,69.37-75,84
		c-56.55,41.15-125.57,58.59-152,42c-1.44-0.91-9.91-6.22-9-11c1.2-6.29,17.76-4.08,37-16c0.83-0.51,18.58-10.44,17-15
		c-1.3-3.74-15.62-3.82-25.5-1.5c-4.6,1.08-9.62,3-22,3c0,0,0,0,0,0c-0.07-0.01-12.08-0.99-29,0c-2.27,0.13-4.5,0.5-4.5,0.5
		c-0.29,0.05-0.53,0.09-0.69,0.12c0,0-2.82,0.46-6.09,0.58C884.9,704.56,875,703,875,703c-4.94-0.78-7.49-1.52-9-2
		c-7.07-2.26-9.1-4.65-10-6c-0.84-1.27-1.63-2.45-1.5-3.5c0.71-5.56,25.19-6.91,60-10c25.11-2.23,40.35-2.28,51-14
		c4.88-5.37,9.46-13.93,7-17c-2.49-3.11-11.23,0.47-19,3c0,0-14.14,4.6-50.5,7.5c-12.83,1.02-48.81,3.9-76.5-17.5
		c-12.8-9.89-24.3-25.33-21-30c3.98-5.64,25.35,9.22,70,18c25.46,5,47.33,5.83,68-4c3.49-1.66,14.82-7.05,14-11
		c-1.51-7.31-41.7,4.05-86-8c-13.23-3.6-54-14.69-75-50c-24.95-41.95-8.68-95.69-2-96c6.58-0.31-0.56,51.5,33,78
		c12.96,10.23,35.31,12.49,80,17c44.12,4.45,59.42,0.5,69-3c5.16-1.88,17.63-6.91,38-24c20.64-17.32,54.22-45.49,66-84
		C1097.93,389.53,1057.17,344.15,1067.5,337.5z"/>
	<path class="st0" d="M988.5,323.5c36.97-2.55,77.35,27.86,77,70c-0.36,43.02-42.93,70.8-74,69c-1.98-0.11-9.92-0.7-19.48-5.34
		c-31.15-15.11-56.27-62.02-37.52-98.66C944.74,338.49,966.29,325.03,988.5,323.5z"/>
	<path class="st0" d="M989.78,484.03c-1.9,1.1-5.21,1.82-8.43,1.95c-3.79,0.15-7.72-0.49-10.68-1.95
		c-7.05-3.47-7.18-10.88-7.17-16.18c0.02-13.15,11.76-32.77,17.92-32.35c0.51,0.03,0.86,0.25,1.03,0.34
		c4.97,2.51,0.57,14.19,3.55,29.16c0.92,4.63,1.38,6.95,2.46,9C990.24,477.41,994.34,481.39,989.78,484.03z"/>
	<path class="st0" d="M-312.5,543.5"/>
	<path class="st1" d="M1623.5,448.5"/>
	<path class="st1" d="M1877.5,501.5"/>
	<path class="st0" d="M-292.5,305.5"/>
	<path class="st1" d="M-38.5,358.5"/>
	<path class="st1" d="M1047.5,783.5"/>
	<path class="st2" d="M971.5,813.5"/>
	<path class="st0" d="M996,511"/>
	<path class="st3" d="M930,677"/>
	<path class="st3" d="M898,721"/>
	<path class="st0" d="M986,474"/>
	<path class="st3" d="M905,720"/>
	<path class="st3" d="M-678,728"/>
	<path class="st3" d="M898,729"/>
	<path class="st0" d="M982,470"/>
	<path class="st0" d="M1006,472"/>
	<path class="st3" d="M938,737"/>
	<path class="st3" d="M931,726"/>
	<path class="st3" d="M972,704c21.67-2.57,26.78-2.07,27-1c0.58,2.84-32.04,15.51-69,15c-19.87-0.27-44.9-4.41-45-9
		c-0.04-1.99,4.6-3.74,9-5"/>
	<path class="st1" d="M-691.5,796.5"/>
	<circle class="st0" cx="984.5" cy="521.5" r="275.5"/>
</g>
<g id="Layer_1">
	<path class="st3" d="M1077.5,337.5c14.16-9.12,109.99,63.73,120,168c0.9,9.36,4.87,58.2-22,112c-22.63,45.31-54.89,69.37-75,84
		c-56.55,41.15-125.57,58.59-152,42c-1.44-0.91-9.91-6.22-9-11c1.2-6.29,17.76-4.08,37-16c0.83-0.51,18.58-10.44,17-15
		c-1.3-3.74-15.62-3.82-25.5-1.5c-4.6,1.08-9.62,3-22,3c0,0,0,0,0,0c-0.07-0.01-12.08-0.99-29,0c-2.27,0.13-4.5,0.5-4.5,0.5
		c-0.29,0.05-0.53,0.09-0.69,0.12c0,0-2.82,0.46-6.09,0.58C894.9,704.56,885,703,885,703c-4.94-0.78-7.49-1.52-9-2
		c-7.07-2.26-9.1-4.65-10-6c-0.84-1.27-1.63-2.45-1.5-3.5c0.71-5.56,25.19-6.91,60-10c25.11-2.23,40.35-2.28,51-14
		c4.88-5.37,9.46-13.93,7-17c-2.49-3.11-11.23,0.47-19,3c-20.48,7.19-37.9,9.07-49.5,9.5c-17.34,0.64-50.69,1.87-77.5-19.5
		c-12.4-9.89-24.3-25.33-21-30c3.98-5.64,25.35,9.22,70,18c25.46,5,47.33,5.83,68-4c3.49-1.66,14.82-7.05,14-11
		c-1.51-7.31-41.7,4.05-86-8c-13.23-3.6-54-14.69-75-50c-24.95-41.95-8.68-95.69-2-96c6.58-0.31-0.56,51.5,33,78
		c12.96,10.23,35.31,12.49,80,17c44.12,4.45,59.42,0.5,69-3c9.75-3.56,19.16-10.4,38-24c47.71-34.45,56.96-54.51,59.5-60.5
		c0.79-1.86,4.13-9.91,6.5-23.5C1101.09,385.76,1069.69,342.53,1077.5,337.5z"/>
	<path class="st3" d="M998.5,323.5c36.97-2.55,77.35,27.86,77,70c-0.36,43.02-42.93,70.8-74,69c-1.98-0.11-9.92-0.7-19.48-5.34
		c-31.15-15.11-56.27-62.02-37.52-98.66C954.74,338.49,976.29,325.03,998.5,323.5z"/>
	<path class="st3" d="M999.78,484.03c-1.9,1.1-5.21,1.82-8.43,1.95c-3.79,0.15-7.72-0.49-10.68-1.95
		c-7.05-3.47-7.18-10.88-7.17-16.18c0.02-13.15,11.76-32.77,17.92-32.35c0.51,0.03,0.86,0.25,1.03,0.34
		c4.97,2.51,0.57,14.19,3.55,29.16c0.92,4.63,1.38,6.95,2.46,9C1000.24,477.41,1004.34,481.39,999.78,484.03z"/>
	<path class="st1" d="M-302.5,543.5"/>
	<path class="st1" d="M57.5,429.5"/>
	<path class="st1" d="M1867.5,490.5"/>
	<path class="st2" d="M-302.5,294.5"/>
	<path class="st1" d="M-48.5,347.5"/>
	<path class="st1" d="M1037.5,772.5"/>
	<path class="st2" d="M961.5,802.5"/>
	<path class="st3" d="M1006,511"/>
	<path class="st3" d="M920,666"/>
	<path class="st3" d="M888,710"/>
	<path class="st3" d="M996,474"/>
	<path class="st3" d="M895,709"/>
	<path class="st3" d="M-688,717"/>
	<path class="st3" d="M888,718"/>
	<path class="st3" d="M992,470"/>
	<path class="st3" d="M1016,472"/>
	<path class="st3" d="M928,726"/>
	<path class="st3" d="M921,715"/>
	<path class="st3" d="M962,693c21.67-2.57,26.78-2.07,27-1c0.58,2.84-32.04,15.51-69,15c-19.87-0.27-44.9-4.41-45-9
		c-0.04-1.99,4.6-3.74,9-5"/>
	<path class="st1" d="M-701.5,785.5"/>
	<circle class="st4" cx="994.5" cy="521.5" r="275.5"/>
	<path class="st3" d="M1166,377"/>
</g>
</svg>
